<svg width="101" height="110" viewBox="0 0 101 110" fill="none" xmlns="http://www.w3.org/2000/svg">
<path d="M19.3532 16.98L18.6966 8.40546C18.5732 6.79317 20.0959 5.55251 21.65 5.99918L29.915 8.37463C30.8463 8.64229 31.513 9.46063 31.587 10.4268L32.2436 19.0013C32.367 20.6136 30.8443 21.8542 29.2902 21.4076L21.0251 19.0321C20.0939 18.7645 19.4271 17.9461 19.3532 16.98Z" fill="#5C2FC2" stroke="black" stroke-width="1.70093"/>
<path d="M73.0265 8.28463L81.3689 6.19681C82.9375 5.80424 84.4164 7.09689 84.2372 8.70393L83.2841 17.2506C83.1767 18.2136 82.482 19.0083 81.542 19.2436L73.1997 21.3314C71.631 21.724 70.1522 20.4313 70.3314 18.8243L71.2845 10.2776C71.3919 9.31463 72.0866 8.51987 73.0265 8.28463Z" fill="#5C2FC2" stroke="black" stroke-width="1.70093"/>
<path d="M82.3537 39.8394C82.3537 57.4318 68.0923 71.6932 50.5 71.6932C32.9077 71.6932 18.6463 57.4318 18.6463 39.8394C18.6463 22.2471 32.9077 7.98573 50.5 7.98573C68.0923 7.98573 82.3537 22.2471 82.3537 39.8394Z" fill="#5C2FC2" stroke="black" stroke-width="1.85556"/>
<path d="M79.8511 76.0228C79.3722 83.789 72.922 89.9395 65.0352 89.9395H35.9648C28.0781 89.9395 21.6278 83.789 21.1489 76.0228H79.8511Z" fill="#AB0A0A" stroke="black" stroke-width="1.85556"/>
<path d="M18.9555 76.0228H35.8102V83.909H24.213C21.3094 83.909 18.9555 81.5551 18.9555 78.6515V76.0228Z" fill="#EDEDED" stroke="black" stroke-width="1.85556"/>
<path d="M65.1899 76.0228H82.0445V78.6515C82.0445 81.5551 79.6907 83.909 76.7871 83.909H65.1899V76.0228Z" fill="#EDEDED" stroke="black" stroke-width="1.85556"/>
<path d="M5.03892 54.6839C5.03892 43.2404 14.3158 33.9635 25.7593 33.9635H75.2408C86.6843 33.9635 95.9612 43.2404 95.9612 54.6839V57.7765C95.9612 69.2201 86.6843 78.4969 75.2408 78.4969H25.7593C14.3157 78.4969 5.03892 69.22 5.03892 57.7765V54.6839Z" fill="#5C2FC2" stroke="black" stroke-width="1.85556"/>
<circle cx="27.3056" cy="56.2302" r="7.11296" fill="black"/>
<circle cx="73.6944" cy="56.2302" r="7.11296" fill="black"/>
<path d="M29.1611 25.9228C31.5321 23.4487 36.4287 19.8922 43.6963 25.9228" stroke="black" stroke-width="1.70093"/>
<path d="M56.9944 25.9228C59.3654 23.4487 64.262 19.8922 71.5296 25.9228" stroke="black" stroke-width="1.70093"/>
<g filter="url(#filter0_d_12_43)">
<path d="M38.4513 89.4541L48.7756 94.446L39.0414 100.508L38.4513 89.4541Z" fill="#FFCC66" stroke="black"/>
<path d="M63.6368 99.912L53.5828 94.3959L63.6159 88.8419L63.6368 99.912Z" fill="#FFCC66" stroke="black"/>
<path d="M52.9969 94.7988C52.9969 95.5625 52.7641 96.2346 52.4116 96.7046C52.0593 97.1744 51.6107 97.4183 51.1572 97.4183C50.7038 97.4183 50.2552 97.1744 49.9029 96.7046C49.5504 96.2346 49.3176 95.5625 49.3176 94.7988C49.3176 94.0351 49.5504 93.3629 49.9029 92.8929C50.2552 92.4231 50.7038 92.1793 51.1572 92.1793C51.6107 92.1793 52.0593 92.4231 52.4116 92.8929C52.7641 93.3629 52.9969 94.0351 52.9969 94.7988Z" fill="#FFCC66" stroke="black"/>
</g>
<defs>
<filter id="filter0_d_12_43" x="30" y="87" width="42" height="23.5719" filterUnits="userSpaceOnUse" color-interpolation-filters="sRGB">
<feFlood flood-opacity="0" result="BackgroundImageFix"/>
<feColorMatrix in="SourceAlpha" type="matrix" values="0 0 0 0 0 0 0 0 0 0 0 0 0 0 0 0 0 0 127 0" result="hardAlpha"/>
<feOffset dy="4"/>
<feGaussianBlur stdDeviation="2"/>
<feComposite in2="hardAlpha" operator="out"/>
<feColorMatrix type="matrix" values="0 0 0 0 0 0 0 0 0 0 0 0 0 0 0 0 0 0 0.25 0"/>
<feBlend mode="normal" in2="BackgroundImageFix" result="effect1_dropShadow_12_43"/>
<feBlend mode="normal" in="SourceGraphic" in2="effect1_dropShadow_12_43" result="shape"/>
</filter>
</defs>
</svg>
